<svg width="8" height="6" viewBox="0 0 10 6" fill="none" xmlns="http://www.w3.org/2000/svg">
<path d="M8.95191 1.93877L8.95184 1.93885L5.35552 5.45706C5.35552 5.45707 5.35551 5.45708 5.3555 5.45709C5.16111 5.64761 4.83925 5.64748 4.64462 5.45763L4.64451 5.45752L1.04816 1.93924L1.04809 1.93916C0.850638 1.74557 0.850638 1.43066 1.04809 1.23708L1.04818 1.23699C1.24485 1.04465 1.56279 1.04452 1.75918 1.23708L5.0002 4.40742L8.24122 1.23669L8.95191 1.93877ZM8.95191 1.93877C9.14941 1.74513 9.14928 1.43068 8.952 1.23678L8.95191 1.23669M8.95191 1.93877V1.23669M8.95191 1.23669C8.75559 1.04421 8.43765 1.04418 8.24129 1.23661L8.95191 1.23669Z" fill="white" stroke="white" stroke-width="0.2"/>
</svg>
